# xmcd
#
# Track frame offsets:
#	150
#	17342
#	33167
#	46092
#	57895
#	70777
#	83897
#	98555
#	113165
#	125630
#	137900
#	150635
#	164492
#	178675
#	191525
#	204707
#	217607
#	230162
#	241870
#	256420
#	270772
#	283912
#	296102
#	307942
#	320717
#	334395
#	345497
#
# Disc length: 4774 seconds
#
# Revision: 1
# Processed by: cddbd v1.4PL0 Copyright (c) Steve Scherf et al.
# Submitted via: audiograbber 1.80
#
DISCID=8412a41b
DTITLE=tex ritter - blood on the saddle disc 1
DYEAR=1900
DGENRE=
TTITLE0=a ridin' old paint/git along little doggies 1999
TTITLE1=rye whiskey 1999
TTITLE2=a ridin' old paint (take 1) 1999
TTITLE3=i ridin' old paint (take 2) 1999
TTITLE4=goodbye old paint (take 1) 1933
TTITLE5=goodbye old paint (take 2) 1999
TTITLE6=rye whiskey (take 1) 1999
TTITLE7=rye whiskey (take 2) 1933
TTITLE8=i ridin' old paint (take 3) 1933
TTITLE9=everyday in the saddle (take 3) 1933
TTITLE10=sam hall 1935
TTITLE11=get along little dogies 1935
TTITLE12=thirty three years in prison 1935
TTITLE13=lady killin' cowboy 1935
TTITLE14=i'm a do-right cowboy 1930
TTITLE15=bill the bar fly 1937
TTITLE16=nobody's darling but mine 1935
TTITLE17=my brown-eyed texas rose 1935
TTITLE18=take me back to my boots and saddle 1935
TTITLE19=the oregon trail 1935
TTITLE20=answer to "nobody's darling" 1936
TTITLE21=a melody from the sky 1936
TTITLE22=the hills of old wyoming 1936
TTITLE23=we'll rest at the end of the trail 1936
TTITLE24=high, wide and handsome 1937
TTITLE25=headin' for the rio grande 1937
TTITLE26=out on the lone prairie 1937
EXTD=
EXTT0=
EXTT1=
EXTT2=
EXTT3=
EXTT4=
EXTT5=
EXTT6=
EXTT7=
EXTT8=
EXTT9=
EXTT10=
EXTT11=
EXTT12=
EXTT13=
EXTT14=
EXTT15=
EXTT16=
EXTT17=
EXTT18=
EXTT19=
EXTT20=
EXTT21=
EXTT22=
EXTT23=
EXTT24=
EXTT25=
EXTT26=
PLAYORDER=
